# xmcd CD database file
# Copyright (C) 1993-1996 Ti Kan
#
# Track frame offsets:
# 150
# 16312
# 37162
# 49170
# 67940
# 84792
# 106362
# 117742
# 133542
# 149547
# 163240
# 180242
# 190450
# 206167
# 221350
# 234927
# 252910
#
# Disc length: 3655 seconds
# Revision: 2
# Processed by: cddbd v1.4b41PL1 Copyright (c) Steve Scherf et al.
# Submitted via: CDSpectrumPro v3.2.327
#
DISCID=f40e4511
DTITLE=Chord on Blues - Rip Chord
DYEAR=1900
DGENRE=
TTITLE0=Girlfriend
TTITLE1=In Your Eyes
TTITLE2=Your Smiling Face
TTITLE3=Mad About You
TTITLE4=I Can Dream About You
TTITLE5=Wicked Game
TTITLE6=Up The Ladder
TTITLE7=Forever, For Now
TTITLE8=Alison
TTITLE9=All I Want
TTITLE10=Straight To My Heart
TTITLE11=Yesterday
TTITLE12=Peg
TTITLE13=Take On Me
TTITLE14=Just The Way I Planned It
TTITLE15=Black
TTITLE16=Nightshift
EXTD=
EXTT0=
EXTT1=
EXTT2=
EXTT3=
EXTT4=
EXTT5=
EXTT6=
EXTT7=
EXTT8=
EXTT9=
EXTT10=
EXTT11=
EXTT12=
EXTT13=
EXTT14=
EXTT15=
EXTT16=
PLAYORDER=
